<svg xmlns="http://www.w3.org/2000/svg" version="1.0" width="1974.000000pt" height="1974.000000pt" viewBox="0 0 1974.000000 1974.000000" preserveAspectRatio="xMidYMid meet">

<g transform="translate(0.000000,1974.000000) scale(0.100000,-0.100000)" fill="#000000" stroke="none">
<path d="M9295 19556 c-22 -7 -146 -66 -275 -131 l-235 -118 -203 12 c-111 7 -233 19 -270 26 -80 17 -191 19 -241 4 -31 -9 -81 -3 -311 35 -351 59 -463 73 -688 88 -286 18 -564 -10 -754 -78 -173 -62 -318 -153 -425 -268 -97 -103 -127 -192 -99 -296 8 -30 13 -56 11 -58 -6 -7 -220 70 -300 107 -45 21 -122 66 -172 100 -177 120 -302 155 -404 115 -75 -31 -384 -224 -477 -298 -315 -254 -589 -612 -797 -1041 -91 -189 -107 -231 -161 -439 -24 -93 -55 -193 -68 -222 -23 -51 -26 -53 -73 -59 -151 -22 -243 -122 -243 -265 0 -42 7 -80 19 -106 62 -137 268 -215 445 -169 80 21 135 56 203 128 94 101 140 203 212 475 43 160 91 283 182 465 181 362 422 653 715 862 152 109 131 106 258 39 l109 -57 -59 -17 c-75 -20 -116 -50 -162 -120 -20 -30 -65 -91 -100 -135 -71 -90 -144 -230 -167 -320 -19 -75 -19 -220 -1 -273 23 -64 93 -168 147 -216 189 -170 465 -207 772 -105 213 70 374 168 479 291 110 129 163 178 194 178 38 0 110 -34 225 -107 198 -126 301 -171 442 -193 98 -16 236 -8 337 20 41 12 84 23 95 26 11 3 -34 -24 -100 -59 -290 -155 -438 -251 -580 -375 -158 -139 -249 -260 -419 -557 -143 -249 -239 -389 -331 -481 -126 -128 -216 -161 -362 -134 -157 29 -345 107 -533 220 -123 73 -536 355 -662 451 -107 80 -230 143 -323 165 -135 31 -237 -1 -356 -113 -240 -226 -375 -580 -411 -1069 -11 -166 -8 -238 27 -599 21 -218 42 -569 60 -985 36 -864 58 -1265 75 -1357 18 -103 82 -183 174 -218 l47 -18 -43 -19 c-58 -26 -106 -73 -134 -133 -23 -49 -24 -57 -24 -325 0 -517 37 -765 230 -1540 l101 -405 9 -240 c13 -331 20 -380 115 -880 244 -1278 252 -1326 280 -1654 29 -342 6 -245 190 -811 42 -129 130 -444 195 -700 l120 -465 75 -154 c183 -371 397 -696 761 -1151 77 -96 261 -332 408 -525 170 -222 305 -388 370 -453 189 -193 448 -417 776 -672 255 -198 303 -237 560 -460 475 -411 681 -566 967 -724 56 -31 231 -137 388 -236 480 -302 492 -308 973 -460 106 -33 252 -88 325 -121 241 -111 272 -118 572 -129 170 -6 240 -12 310 -29 87 -21 108 -22 540 -19 l450 3 115 39 c197 65 434 163 735 303 355 166 444 205 800 348 522 211 746 313 950 434 141 83 897 702 1071 875 302 303 576 759 710 1183 53 168 74 214 117 257 47 48 67 105 77 219 6 84 19 135 68 287 229 703 281 928 289 1260 5 186 2 220 -51 720 -61 563 -95 841 -127 1040 -13 82 -23 210 -29 370 -9 265 -19 365 -80 800 -37 270 -41 316 -65 875 -14 325 -25 698 -25 831 l0 241 -86 309 c-102 369 -111 409 -164 769 -50 342 -81 502 -125 656 -45 154 -73 214 -188 398 -53 84 -101 170 -107 190 -5 20 -35 185 -65 366 -65 393 -98 525 -165 661 -56 116 -118 181 -197 208 -157 54 -315 -48 -330 -213 -4 -45 1 -86 26 -182 17 -68 53 -254 81 -414 95 -546 138 -679 301 -921 39 -59 82 -133 94 -163 36 -89 73 -271 121 -600 57 -388 76 -483 170 -826 l77 -280 8 -480 c11 -712 37 -1123 98 -1580 42 -313 51 -412 60 -645 8 -225 16 -308 41 -455 46 -276 97 -657 119 -895 25 -265 45 -718 39 -882 l-5 -123 -116 -376 c-63 -207 -125 -423 -138 -480 -12 -57 -23 -105 -24 -107 -2 -2 -70 38 -151 89 -277 172 -478 259 -665 289 -200 32 -306 -10 -409 -160 -117 -171 -168 -343 -250 -830 -23 -135 -43 -246 -45 -248 -5 -5 -237 139 -285 177 -25 20 -135 126 -245 236 -215 215 -273 257 -371 270 -126 17 -277 -60 -370 -191 -99 -139 -145 -290 -215 -714 -86 -525 -134 -653 -233 -620 -64 21 -172 107 -367 295 -217 209 -316 289 -422 339 -190 90 -326 71 -450 -63 -134 -145 -198 -318 -263 -711 -36 -222 -59 -328 -74 -344 -18 -19 -134 118 -215 253 -108 180 -197 276 -309 331 -103 52 -183 66 -272 51 -193 -34 -332 -185 -419 -454 -18 -53 -34 -100 -37 -102 -3 -3 -33 59 -68 137 -198 450 -329 652 -464 717 -158 77 -361 38 -506 -96 -130 -120 -222 -312 -330 -691 -14 -47 -27 -77 -31 -70 -9 18 -39 240 -39 291 0 52 6 61 51 80 97 40 154 135 147 246 -5 81 -27 128 -88 191 -106 109 -223 155 -373 148 -160 -8 -278 -76 -326 -187 -40 -94 -37 -303 10 -580 11 -63 18 -115 17 -116 -2 -2 -61 49 -133 113 -219 194 -394 343 -571 484 -567 454 -905 801 -1328 1363 -82 110 -242 315 -354 455 -233 292 -362 479 -462 673 -105 201 -124 259 -225 680 -25 104 -113 401 -195 661 l-149 473 -25 299 c-25 290 -29 319 -150 964 -69 366 -143 759 -165 874 -50 257 -58 323 -66 551 -11 338 -18 379 -140 840 -150 564 -197 799 -214 1060 -8 128 0 360 14 404 4 15 21 19 86 24 182 14 288 113 289 268 0 153 -88 241 -271 270 -41 7 -75 13 -76 13 -1 1 4 20 12 41 19 53 19 141 0 197 -9 25 -36 69 -60 97 l-45 53 -1 151 c0 84 -4 204 -9 267 -5 63 -18 322 -29 575 -12 253 -25 491 -31 528 -21 140 -50 459 -60 660 -17 320 4 590 60 796 27 96 94 241 113 241 19 0 196 -112 407 -258 351 -242 581 -368 805 -441 460 -150 765 -94 1067 197 119 115 216 245 368 497 158 261 253 388 405 540 163 164 259 233 440 321 230 110 328 146 412 152 64 4 77 2 117 -22 25 -14 85 -67 133 -117 48 -50 129 -125 178 -168 50 -43 164 -146 255 -231 295 -274 463 -401 659 -499 225 -113 476 -170 696 -158 207 12 358 76 490 211 81 82 135 167 243 381 103 203 139 252 217 291 50 24 63 26 143 22 105 -5 185 -36 315 -121 153 -99 220 -181 415 -497 204 -332 394 -551 672 -775 103 -83 272 -195 360 -240 209 -105 442 -131 625 -70 137 46 214 95 499 318 147 115 211 149 296 155 84 6 152 -15 218 -67 85 -67 119 -155 182 -463 59 -293 72 -327 202 -550 40 -69 46 -87 50 -151 10 -158 113 -257 267 -257 179 0 296 170 262 381 -17 100 -40 164 -112 305 -60 116 -72 151 -113 317 -47 190 -116 402 -167 516 -36 79 -36 83 -1 70 50 -20 143 -15 195 10 76 37 112 88 154 220 33 104 36 126 35 221 -2 266 -69 446 -227 606 -87 88 -150 132 -350 244 -183 102 -385 241 -720 493 -667 503 -800 601 -995 731 -113 75 -256 171 -318 213 -310 214 -445 267 -682 266 -235 -1 -379 -64 -675 -297 -144 -114 -209 -146 -289 -146 -171 0 -337 84 -646 326 -96 75 -215 164 -265 197 -117 78 -282 157 -399 192 l-93 28 25 49 c51 99 36 223 -37 296 -87 87 -240 207 -301 236 -75 35 -161 44 -225 22z m-2335 -604 l45 -7 -185 -72 c-102 -40 -217 -84 -257 -97 -80 -27 -222 -61 -228 -54 -3 3 28 39 68 81 50 53 88 84 127 101 96 43 305 66 430 48z m2069 -182 c20 -5 10 -12 -65 -47 -156 -71 -238 -78 -359 -32 l-60 24 90 6 c100 8 153 19 235 48 53 19 93 19 159 1z m-1129 -241 c35 -16 104 -60 154 -97 101 -75 104 -67 -38 -97 -99 -21 -194 -70 -401 -205 -243 -158 -360 -210 -471 -210 -75 0 -137 27 -296 131 -76 50 -170 105 -208 123 l-70 32 77 18 c108 25 288 84 553 181 316 115 452 152 565 154 59 1 81 -4 135 -30z m1806 -100 c103 -31 321 -139 423 -209 98 -67 132 -98 90 -81 -13 5 -123 58 -245 118 -121 60 -266 124 -322 143 -99 34 -113 50 -46 50 18 0 63 -9 100 -21z m-4033 -159 c139 -40 279 -75 335 -83 l96 -13 -55 -31 c-75 -42 -179 -127 -331 -269 -160 -150 -220 -188 -297 -189 -54 0 -121 19 -121 35 0 4 38 61 85 126 86 121 125 207 125 278 0 53 -28 132 -65 180 -19 25 -29 43 -22 41 7 -3 119 -36 250 -75z m6643 -185 c71 -27 126 -57 229 -125 39 -26 170 -106 293 -179 247 -147 322 -200 527 -371 211 -176 320 -259 477 -364 79 -52 240 -168 359 -258 160 -120 257 -185 370 -247 282 -154 366 -219 390 -302 14 -44 7 -104 -29 -275 l-17 -82 -40 35 c-128 111 -326 175 -540 175 -234 -1 -397 -73 -660 -292 -253 -211 -344 -249 -480 -201 -124 44 -332 196 -506 370 -137 137 -173 186 -363 485 -146 229 -233 348 -341 463 l-76 83 68 -29 c305 -128 409 -174 628 -280 242 -118 251 -121 316 -121 78 0 125 17 178 66 80 71 105 193 60 289 -38 80 -92 116 -499 327 -450 234 -446 232 -660 313 -244 92 -310 130 -353 203 l-17 30 42 25 c24 14 99 66 168 117 220 163 262 183 354 174 33 -3 88 -16 122 -29z m-3030 -115 c158 -28 281 -80 664 -283 216 -114 389 -158 541 -137 135 18 232 90 259 190 6 22 14 40 18 40 4 0 41 -14 81 -30 75 -31 210 -70 241 -70 10 0 26 -25 45 -67 43 -99 117 -204 193 -274 37 -33 58 -58 47 -55 -247 69 -500 48 -672 -56 -150 -90 -253 -220 -389 -491 -158 -313 -174 -332 -275 -329 -79 2 -240 36 -323 67 -211 79 -344 172 -669 469 -76 69 -180 161 -230 203 -51 42 -133 116 -184 164 -169 161 -315 244 -484 279 -159 33 -207 29 -367 -34 -193 -76 -201 -76 -77 -4 61 35 172 104 248 152 76 48 157 96 180 106 32 14 510 105 857 163 52 9 239 7 296 -3z m6310 -14235 c43 -25 95 -50 114 -55 139 -38 287 -94 355 -135 44 -26 81 -48 83 -50 5 -5 -160 -369 -233 -516 -182 -363 -303 -519 -565 -729 -58 -47 -145 -121 -195 -164 -432 -381 -757 -570 -1531 -889 -292 -121 -447 -190 -709 -317 -400 -193 -588 -268 -835 -332 -218 -56 -297 -56 -550 2 -179 42 -192 43 -410 50 l-225 6 -199 78 c-109 42 -340 126 -515 185 l-316 108 -285 160 c-326 183 -302 154 -244 292 80 190 107 271 155 468 27 113 52 210 55 214 3 5 62 -102 131 -238 207 -409 326 -594 483 -754 102 -103 161 -133 260 -134 63 0 85 5 135 29 110 55 192 167 229 316 9 36 23 139 31 230 9 91 17 174 18 184 1 14 28 -13 92 -94 110 -141 215 -245 303 -303 279 -184 591 -140 750 105 82 126 127 279 197 660 l38 206 106 -96 c302 -273 528 -412 744 -456 350 -72 642 139 742 537 13 54 40 205 60 335 40 273 74 471 84 490 6 10 30 -6 87 -55 125 -108 268 -221 417 -332 76 -56 171 -132 211 -170 119 -110 206 -152 313 -152 124 0 214 70 296 229 85 164 117 307 162 707 14 127 33 262 41 300 8 39 17 82 21 98 3 15 9 27 13 27 3 0 42 -20 86 -45z"/>
<path d="M11645 13227 c-92 -45 -144 -127 -145 -228 0 -78 24 -140 77 -199 89 -99 205 -132 391 -112 262 29 643 -7 957 -90 98 -26 205 -27 258 -4 58 25 122 90 148 149 63 145 -3 299 -152 355 -96 35 -495 99 -829 132 -58 6 -229 13 -380 16 l-275 5 -50 -24z"/>
<path d="M7870 13119 c-36 -10 -126 -23 -200 -29 -377 -28 -451 -41 -580 -102 -92 -44 -200 -153 -225 -227 -22 -66 -22 -155 0 -207 22 -55 89 -119 149 -145 38 -16 71 -22 131 -22 133 -1 236 33 305 99 26 24 53 37 100 48 93 22 90 23 90 -38 0 -113 93 -231 212 -270 67 -21 247 -22 309 -1 130 44 199 187 158 325 -11 36 -10 38 39 87 166 166 63 439 -186 492 -82 17 -227 13 -302 -10z"/>
<path d="M12164 12574 c-101 -37 -167 -136 -167 -249 0 -71 23 -129 87 -220 25 -34 56 -88 70 -119 35 -79 76 -127 135 -159 131 -72 291 -26 356 103 51 101 40 217 -35 377 -31 67 -55 100 -112 157 -42 42 -94 82 -123 95 -63 30 -155 36 -211 15z"/>
<path d="M5400 12461 c-117 -36 -204 -153 -203 -276 0 -149 111 -255 269 -255 136 0 231 49 287 149 81 144 1 318 -170 371 -66 20 -138 24 -183 11z"/>
<path d="M10116 11025 c-96 -37 -155 -115 -163 -218 -5 -58 3 -88 116 -450 130 -418 141 -464 141 -602 0 -204 31 -355 107 -520 142 -310 177 -367 281 -445 55 -42 60 -49 71 -101 21 -102 96 -178 196 -199 209 -43 401 165 355 386 -25 122 -84 203 -258 354 -62 54 -64 58 -134 225 l-70 170 -8 185 c-8 193 -24 293 -91 554 -97 386 -196 580 -329 646 -57 29 -159 36 -214 15z"/>
<path d="M12137 7356 c-21 -8 -55 -26 -75 -40 -20 -14 -75 -53 -122 -86 -162 -113 -359 -193 -558 -226 -73 -12 -137 -15 -262 -11 -270 9 -456 61 -759 214 -178 89 -188 93 -251 93 -152 0 -261 -113 -259 -269 2 -150 85 -233 380 -380 315 -157 642 -230 979 -218 324 11 569 84 865 256 55 32 130 75 167 95 199 109 290 291 219 439 -56 116 -203 176 -324 133z"/>
</g>
</svg>